Format                           : MPEG-4
Format profile                   : Base Media / Version 2
Codec ID                         : mp42
File size                        : 355 MiB
Duration                         : 1h 40mn
Overall bit rate                 : 494 Kbps
Encoded date                     : UTC 2013-03-02 01:01:04
Tagged date                      : UTC 2013-03-02 01:01:04

Video
ID                               : 1
Format                           : AVC
Format/Info                      : Advanced Video Codec
Format profile                   : Main@L3.0
Format settings, CABAC           : Yes
Format settings, ReFrames        : 3 frames
Codec ID                         : avc1
Codec ID/Info                    : Advanced Video Coding
Duration                         : 1h 40mn
Bit rate mode                    : Variable
Bit rate                         : 365 Kbps
Width                            : 720 pixels
Height                           : 304 pixels
Display aspect ratio             : 2.35:1
Frame rate mode                  : Variable
Frame rate                       : 24.000 fps
Minimum frame rate               : 24.000 fps
Maximum frame rate               : 24.024 fps
Resolution                       : 8 bits
Colorimetry                      : 4:2:0
Scan type                        : Progressive
Bits/(Pixel*Frame)               : 0.070
Stream size                      : 263 MiB (74%)
Language                         : English
Encoded date                     : UTC 2013-03-02 01:01:04
Tagged date                      : UTC 2013-03-02 01:01:04

Audio
ID                               : 2
Format                           : AAC
Format/Info                      : Advanced Audio Codec
Format version                   : Version 4
Format profile                   : LC
Format settings, SBR             : No
Codec ID                         : 40
Duration                         : 1h 40mn
Bit rate mode                    : Variable
Bit rate                         : 126 Kbps
Maximum bit rate                 : 151 Kbps
Channel(s)                       : 2 channels
Channel positions                : Front: L R
Sampling rate                    : 44.1 KHz
Stream size                      : 90.3 MiB (25%)
Language                         : English
Encoded date                     : UTC 2013-03-02 01:01:04
Tagged date                      : UTC 2013-03-02 01:01:04

